<?xml version="1.0" standalone="no"?>
<!DOCTYPE svg PUBLIC "-//W3C//DTD SVG 20010904//EN"
 "http://www.w3.org/TR/2001/REC-SVG-20010904/DTD/svg10.dtd">
<svg version="1.0" xmlns="http://www.w3.org/2000/svg"
 width="480.000000pt" height="480.000000pt" viewBox="0 0 480.000000 480.000000"
 preserveAspectRatio="xMidYMid meet">
<metadata>
Created by potrace 1.14, written by Peter Selinger 2001-2017
</metadata>
<g transform="translate(0.000000,480.000000) scale(0.100000,-0.100000)"
fill="#000000" stroke="none">
<path d="M2335 4585 c-135 -22 -61 19 -1075 -585 -201 -119 -422 -249 -491
-289 -204 -114 -276 -187 -320 -322 l-23 -74 -1 -910 c0 -832 1 -915 17 -972
39 -140 116 -238 243 -308 39 -21 194 -111 345 -200 826 -485 1149 -671 1201
-692 123 -49 251 -54 359 -14 31 12 98 46 150 77 52 31 190 111 305 178 116
68 314 184 440 258 127 75 338 197 469 271 132 74 262 154 289 178 71 61 133
151 158 227 21 66 22 82 24 787 1 396 -1 821 -4 945 -6 202 -9 231 -30 283
-30 77 -74 133 -146 186 -33 24 -319 193 -636 376 -317 182 -663 384 -770 447
-200 119 -248 141 -334 153 -27 3 -59 8 -70 9 -11 2 -56 -2 -100 -9z m98 -706
c12 -7 85 -49 162 -94 77 -45 230 -135 340 -200 200 -118 270 -159 638 -379
l197 -118 -1 -677 c-1 -372 -4 -689 -8 -706 -5 -25 -22 -39 -101 -84 -171 -97
-352 -203 -500 -291 -80 -48 -237 -140 -350 -205 -113 -65 -249 -144 -303
-177 l-97 -59 -43 29 c-23 16 -58 38 -77 49 -19 11 -98 58 -175 103 -77 46
-191 112 -254 147 -62 35 -136 79 -165 97 -28 18 -121 72 -206 120 -85 49
-215 125 -287 169 l-133 80 0 708 0 708 23 12 c12 6 218 129 457 272 786 470
846 505 858 507 2 0 13 -5 25 -11z"/>
<path d="M2295 3443 c-60 -37 -182 -110 -270 -163 -88 -54 -239 -144 -335
-200 -96 -57 -201 -119 -232 -138 l-58 -35 0 -517 0 -516 228 -136 c267 -160
536 -318 680 -400 l103 -59 62 34 c34 19 100 56 147 84 47 27 157 91 245 143
88 51 250 145 360 208 110 63 203 119 207 126 4 6 8 241 8 521 l0 510 -47 29
c-27 16 -84 51 -128 76 -44 26 -201 118 -350 205 -299 175 -506 295 -508 294
-1 0 -51 -30 -112 -66z"/>
</g>
</svg>
